<svg xmlns="http://www.w3.org/2000/svg" viewBox="0 0 100 130" fill="none">
  <!-- Elixir mascot placeholder — swap with real art. -->
  <!-- Body: purple teardrop -->
  <path d="M50 6 C22 52 6 74 6 94 C6 116 27 130 50 130 C73 130 94 116 94 94 C94 74 78 52 50 6Z" fill="#6D28D9"/>
  <!-- Depth gradient hint -->
  <path d="M50 6 C22 52 6 74 6 94 C6 116 27 130 50 130" stroke="#8B5CF6" stroke-width="2" opacity="0.3"/>
  <!-- Shine -->
  <ellipse cx="33" cy="58" rx="10" ry="15" fill="white" opacity="0.10" transform="rotate(-10 33 58)"/>
  <!-- Eyes -->
  <ellipse cx="37" cy="90" rx="11" ry="13" fill="white"/>
  <ellipse cx="63" cy="90" rx="11" ry="13" fill="white"/>
  <ellipse cx="39" cy="92" rx="6.5" ry="7.5" fill="#1E0050"/>
  <ellipse cx="65" cy="92" rx="6.5" ry="7.5" fill="#1E0050"/>
  <!-- Pupils -->
  <circle cx="41" cy="89" r="2.2" fill="white"/>
  <circle cx="67" cy="89" r="2.2" fill="white"/>
  <!-- Smirk -->
  <path d="M41 112 Q54 122 63 112" stroke="white" stroke-width="2.5" fill="none" stroke-linecap="round"/>
  <!-- Crown tip glow -->
  <circle cx="50" cy="12" r="5" fill="#A78BFA" opacity="0.4"/>
</svg>
